# xmcd
#
# Track frame offsets:
# 150
# 11336
# 22151
# 33020
# 44986
# 58921
# 71080
# 82281
# 92684
# 104224
# 117678
# 128592
# 139381
# 152340
# 164946
# 178312
# 189747
# 199942
# 211126
# 220415
# 231115
# 243392
# 255938
# 269276
#
# Disc length: 3730 seconds
#
#
# Revision: 0
# Processed by: cddbd v1.5.1PL0 Copyright (c) Steve Scherf et al.
# Submitted via: FreeRIP 2.90 
#
DISCID=780e9018
DTITLE=Slim Whitman - Country Memories/Cool Water
DYEAR=1968
DGENRE=Country
TTITLE0=Broken Wings
TTITLE1=Need You
TTITLE2=Hasta Luego
TTITLE3=The Keeper of the Key
TTITLE4=I'll Never Pass This Way Again
TTITLE5=Chained to a Memory
TTITLE6=Yearning(Just for You)
TTITLE7=Kentucky Waltz
TTITLE8=Roses Are Red(My Love)
TTITLE9=Don't Be Angry
TTITLE10=I Walk Alone
TTITLE11=Tears On My Pillow
TTITLE12=Cool Water
TTITLE13=Twilla Lee
TTITLE14=The Letter Edged in Black
TTITLE15=Down in the Valley
TTITLE16=Twelth of Never
TTITLE17=Tennessee Waltz
TTITLE18=Please Help Me I'm Falling
TTITLE19=The old Lamp Lighter
TTITLE20=River of Tears
TTITLE21=The Bells That Broke My Heart
TTITLE22=When I'm Gone You'll Soon Forget
TTITLE23=La Golondrina
EXTD=Double Album Released  again in 2004
EXTT0=
EXTT1=
EXTT2=
EXTT3=
EXTT4=
EXTT5=
EXTT6=
EXTT7=
EXTT8=
EXTT9=
EXTT10=
EXTT11=
EXTT12=
EXTT13=
EXTT14=
EXTT15=
EXTT16=
EXTT17=
EXTT18=
EXTT19=
EXTT20=
EXTT21=
EXTT22=
EXTT23=
PLAYORDER=
